<svg width="20" height="17" viewBox="0 0 20 17" fill="none" xmlns="http://www.w3.org/2000/svg">
<path d="M1.21181 7.2727H15.5845L11.1854 1.98897C10.9797 1.74149 10.8808 1.42243 10.9103 1.10198C10.9399 0.781534 11.0955 0.485946 11.343 0.280246C11.5905 0.0745462 11.9095 -0.0244169 12.23 0.00512801C12.5504 0.0346729 12.846 0.190306 13.0517 0.437789L19.111 7.70897C19.1518 7.76681 19.1883 7.82757 19.2201 7.89075C19.2201 7.95135 19.2201 7.9877 19.3049 8.0483C19.3599 8.18725 19.3886 8.33516 19.3898 8.48457C19.3886 8.63398 19.3599 8.78189 19.3049 8.92084C19.3049 8.98143 19.3049 9.01779 19.2201 9.07838C19.1883 9.14157 19.1518 9.20233 19.111 9.26016L13.0517 16.5313C12.9378 16.6681 12.7951 16.7782 12.6338 16.8536C12.4725 16.929 12.2966 16.9679 12.1186 16.9676C11.8354 16.9682 11.561 16.8696 11.343 16.6889C11.2203 16.5872 11.1188 16.4622 11.0445 16.3212C10.9701 16.1802 10.9243 16.0259 10.9097 15.8672C10.8951 15.7085 10.9119 15.5484 10.9592 15.3962C11.0065 15.244 11.0834 15.1026 11.1854 14.9802L15.5845 9.69643H1.21181C0.890398 9.69643 0.582155 9.56875 0.354887 9.34149C0.127619 9.11422 -5.91278e-05 8.80597 -5.91278e-05 8.48457C-5.91278e-05 8.16316 0.127619 7.85492 0.354887 7.62765C0.582155 7.40038 0.890398 7.2727 1.21181 7.2727Z" fill="white"/>
</svg>
