<svg width="63" height="64" viewBox="0 0 63 64" fill="none" xmlns="http://www.w3.org/2000/svg">
<g clip-path="url(#clip0_1_463)">
<path d="M25.2158 9.81445H10.1394C9.62257 9.81445 9.20569 10.2328 9.20569 10.7513V34.2315C9.20569 34.75 9.62257 35.1683 10.1394 35.1683H25.2158C25.7326 35.1683 26.1495 34.75 26.1495 34.2315V10.7513C26.1495 10.2328 25.7326 9.81445 25.2158 9.81445ZM11.073 11.6882H16.7439V15.6845H11.073V11.6882ZM16.7405 33.2911H11.0696V29.3052H16.7405V33.2911ZM16.7405 27.4315H11.0696V23.4352H16.7405V27.4315ZM16.7405 21.558H11.0696V17.5617H16.7405V21.558ZM24.2821 33.2911H18.6112V29.3052H24.2821V33.2911ZM24.2821 27.4315H18.6112V23.4352H24.2821V27.4315ZM24.2821 21.558H18.6112V17.5617H24.2821V21.558ZM24.2821 15.6845H18.6112V11.6882H24.2821V15.6845Z" fill="#9FCE00"/>
<path d="M62.0663 14.644H46.0872V6.4923H62.0663C62.5831 6.4923 63 6.074 63 5.55545V0.936855C63 0.418301 62.5831 0 62.0663 0H0.933665C0.416876 0 0 0.418301 0 0.936855V5.55545C0 6.074 0.416876 6.4923 0.933665 6.4923H3.54173V28.5447C3.54173 29.0633 3.9586 29.4816 4.47539 29.4816C4.99218 29.4816 5.40906 29.0633 5.40906 28.5447V6.49576H44.2164V14.6474H31.4966C30.9798 14.6474 30.5629 15.0657 30.5629 15.5843V38.4871H5.4125V32.2956C5.4125 31.777 4.99563 31.3587 4.47884 31.3587C3.96205 31.3587 3.54517 31.777 3.54517 32.2956V38.4871H0.933665C0.416876 38.4871 0 38.9054 0 39.424V44.0426C0 44.5611 0.416876 44.9794 0.933665 44.9794H3.54173V63.0631C3.54173 63.5817 3.9586 64 4.47539 64H58.3317C58.8485 64 59.2653 63.5817 59.2653 63.0631V24.78H62.0663C62.5831 24.78 63 24.3617 63 23.8431V15.5808C63 15.0623 62.5831 14.644 62.0663 14.644ZM1.86733 4.61859V1.87371H61.1327V4.61859H1.86733ZM16.7405 62.1263H11.0696V48.4676H16.7405V62.1263ZM38.8005 62.1263H18.6113V47.5272C18.6113 47.0087 18.1944 46.5904 17.6776 46.5904H10.1394C9.62261 46.5904 9.20573 47.0087 9.20573 47.5272V62.1263H5.4125V44.9794H38.8005V62.1263ZM38.8005 43.1057H1.86733V40.3608H38.7971V43.1057H38.8005ZM48.0993 62.1263H40.6678V54.1959H48.0993V62.1263ZM48.0993 52.3222H40.6678V44.3917H48.0993V52.3222ZM48.0993 42.5146H40.6678V34.5841H48.0993V42.5146ZM48.0993 32.7104H40.6678V24.78H48.0993V32.7104ZM57.398 62.1263H49.9666V54.1959H57.398V62.1263ZM57.398 52.3222H49.9666V44.3917H57.398V52.3222ZM57.398 42.5146H49.9666V34.5841H57.398V42.5146ZM57.398 32.7104H49.9666V24.78H57.398V32.7104ZM61.1327 22.9063H39.7342C39.2243 22.9063 38.8005 23.335 38.8005 23.8431V38.4871H32.4371V16.5211H61.1361V22.9063H61.1327Z" fill="#9FCE00"/>
</g>
<defs>
<clipPath id="clip0_1_463">
<rect width="63" height="64" fill="white"/>
</clipPath>
</defs>
</svg>
