<svg width="13" height="13" viewBox="0 0 13 13" fill="none" xmlns="http://www.w3.org/2000/svg">
<path d="M6.125 2.98047C6.5625 2.98047 6.97266 3.0625 7.35547 3.22656C7.73828 3.39062 8.07096 3.61393 8.35352 3.89648C8.63607 4.17904 8.85938 4.51172 9.02344 4.89453C9.1875 5.27734 9.26953 5.6875 9.26953 6.125C9.26953 6.55339 9.1875 6.95898 9.02344 7.3418C8.85938 7.72461 8.63607 8.05957 8.35352 8.34668C8.07096 8.63379 7.73828 8.85938 7.35547 9.02344C6.97266 9.1875 6.5625 9.26953 6.125 9.26953C5.69661 9.26953 5.29102 9.1875 4.9082 9.02344C4.52539 8.85938 4.19043 8.63379 3.90332 8.34668C3.61621 8.05957 3.39062 7.72461 3.22656 7.3418C3.0625 6.95898 2.98047 6.55339 2.98047 6.125C2.98047 5.6875 3.0625 5.27734 3.22656 4.89453C3.39062 4.51172 3.61621 4.17904 3.90332 3.89648C4.19043 3.61393 4.52539 3.39062 4.9082 3.22656C5.29102 3.0625 5.69661 2.98047 6.125 2.98047ZM6.125 8.16211C6.6901 8.16211 7.17318 7.96387 7.57422 7.56738C7.97526 7.1709 8.17578 6.6901 8.17578 6.125C8.17578 5.5599 7.97526 5.07682 7.57422 4.67578C7.17318 4.27474 6.6901 4.07422 6.125 4.07422C5.5599 4.07422 5.0791 4.27474 4.68262 4.67578C4.28613 5.07682 4.08789 5.5599 4.08789 6.125C4.08789 6.6901 4.28841 7.1709 4.68945 7.56738C5.09049 7.96387 5.56901 8.16211 6.125 8.16211ZM10.1309 2.85742C10.1309 3.05794 10.0602 3.22884 9.91895 3.37012C9.77767 3.51139 9.60221 3.58203 9.39258 3.58203C9.19206 3.58203 9.02116 3.51139 8.87988 3.37012C8.73861 3.22884 8.66797 3.05794 8.66797 2.85742C8.66797 2.64779 8.73861 2.47233 8.87988 2.33105C9.02116 2.18978 9.19206 2.11914 9.39258 2.11914C9.60221 2.11914 9.77767 2.18978 9.91895 2.33105C10.0602 2.47233 10.1309 2.64779 10.1309 2.85742ZM12.209 3.5957C12.2272 3.85091 12.2409 4.21094 12.25 4.67578C12.25 5.13151 12.25 5.6123 12.25 6.11816C12.25 6.62402 12.25 7.10938 12.25 7.57422C12.2409 8.03906 12.2272 8.39909 12.209 8.6543C12.1908 9.13737 12.111 9.59538 11.9697 10.0283C11.8285 10.4613 11.5801 10.8555 11.2246 11.2109C10.8691 11.5755 10.4749 11.8262 10.042 11.9629C9.60905 12.0996 9.14648 12.1816 8.6543 12.209C8.39909 12.2181 8.03906 12.2272 7.57422 12.2363C7.11849 12.2454 6.6377 12.25 6.13184 12.25C5.62598 12.25 5.14062 12.2454 4.67578 12.2363C4.21094 12.2272 3.85091 12.2181 3.5957 12.209C3.10352 12.1816 2.64323 12.0996 2.21484 11.9629C1.78646 11.8262 1.38997 11.5755 1.02539 11.2109C0.669922 10.8555 0.423828 10.4613 0.287109 10.0283C0.150391 9.59538 0.0683594 9.13737 0.0410156 8.6543C0.0227865 8.39909 0.0136719 8.03906 0.0136719 7.57422C0.00455729 7.10938 0 6.62402 0 6.11816C0 5.6123 0.00455729 5.12695 0.0136719 4.66211C0.0136719 4.20638 0.0227865 3.85091 0.0410156 3.5957C0.0683594 3.10352 0.150391 2.64095 0.287109 2.20801C0.423828 1.77507 0.669922 1.38086 1.02539 1.02539C1.38997 0.669922 1.78874 0.42155 2.22168 0.280273C2.65462 0.138997 3.11263 0.0592451 3.5957 0.0410156C3.85091 0.0227861 4.21094 0.00911427 4.67578 0C5.14062 0 5.62598 0 6.13184 0C6.6377 0 7.11849 0 7.57422 0C8.03906 0.00911427 8.39909 0.0227861 8.6543 0.0410156C9.14648 0.0683594 9.60905 0.150391 10.042 0.287109C10.4749 0.423828 10.8691 0.669922 11.2246 1.02539C11.5801 1.38997 11.8285 1.78646 11.9697 2.21484C12.111 2.64323 12.1908 3.10352 12.209 3.5957ZM10.9102 9.73438C10.9831 9.53385 11.0378 9.27409 11.0742 8.95508C11.1107 8.63607 11.1357 8.30339 11.1494 7.95703C11.1631 7.61068 11.1654 7.27344 11.1562 6.94531C11.1562 6.61719 11.1562 6.34375 11.1562 6.125C11.1562 5.89714 11.1562 5.61914 11.1562 5.29102C11.1654 4.96289 11.1631 4.62565 11.1494 4.2793C11.1357 3.93294 11.1107 3.60482 11.0742 3.29492C11.0378 2.97591 10.9831 2.71615 10.9102 2.51562C10.8008 2.24219 10.6458 2.00521 10.4453 1.80469C10.2448 1.60417 10.0078 1.44922 9.73438 1.33984C9.53385 1.26693 9.27409 1.21224 8.95508 1.17578C8.64518 1.13932 8.31706 1.11426 7.9707 1.10059C7.62435 1.08691 7.28711 1.08464 6.95898 1.09375C6.63086 1.09375 6.35286 1.09375 6.125 1.09375C5.90625 1.09375 5.63281 1.09375 5.30469 1.09375C4.97656 1.08464 4.63932 1.08691 4.29297 1.10059C3.94661 1.11426 3.61393 1.13932 3.29492 1.17578C2.97591 1.21224 2.71615 1.26693 2.51562 1.33984C2.24219 1.44922 2.00521 1.60417 1.80469 1.80469C1.60417 2.00521 1.45378 2.24219 1.35352 2.51562C1.27148 2.71615 1.21224 2.97591 1.17578 3.29492C1.13932 3.60482 1.11654 3.93294 1.10742 4.2793C1.09831 4.62565 1.09375 4.96289 1.09375 5.29102C1.10286 5.61914 1.10742 5.89714 1.10742 6.125C1.10742 6.34375 1.10286 6.61719 1.09375 6.94531C1.09375 7.27344 1.09831 7.61068 1.10742 7.95703C1.11654 8.30339 1.13932 8.63607 1.17578 8.95508C1.21224 9.27409 1.27148 9.53385 1.35352 9.73438C1.46289 10.0078 1.61784 10.2425 1.81836 10.4385C2.01888 10.6344 2.2513 10.7871 2.51562 10.8965C2.71615 10.9785 2.97591 11.0378 3.29492 11.0742C3.61393 11.1107 3.94661 11.1335 4.29297 11.1426C4.63932 11.1517 4.97656 11.1562 5.30469 11.1562C5.63281 11.1471 5.90625 11.1426 6.125 11.1426C6.35286 11.1426 6.63086 11.1471 6.95898 11.1562C7.28711 11.1562 7.62435 11.1517 7.9707 11.1426C8.31706 11.1335 8.64518 11.1107 8.95508 11.0742C9.27409 11.0378 9.53385 10.9785 9.73438 10.8965C10.0078 10.7871 10.2448 10.6322 10.4453 10.4316C10.6458 10.2311 10.8008 9.9987 10.9102 9.73438Z" fill="#3E509D"/>
</svg>
