<svg width="64" height="64" viewBox="0 0 64 64" fill="none" xmlns="http://www.w3.org/2000/svg">
<path d="M47.3125 48.3125C47.3125 48.0208 47.4062 47.7812 47.5938 47.5938C47.7812 47.4062 48.0208 47.3125 48.3125 47.3125C48.5625 47.3125 48.7917 47.4062 49 47.5938C49.2083 47.7812 49.3125 48.0208 49.3125 48.3125V63C49.3125 63.2917 49.2083 63.5312 49 63.7188C48.7917 63.9062 48.5625 64 48.3125 64H5.6875C5.4375 64 5.20833 63.9062 5 63.7188C4.79167 63.5312 4.6875 63.2917 4.6875 63V37.75C4.6875 37.4583 4.79167 37.2188 5 37.0312C5.20833 36.8438 5.4375 36.75 5.6875 36.75C5.97917 36.75 6.21875 36.8438 6.40625 37.0312C6.59375 37.2188 6.6875 37.4583 6.6875 37.75V62H47.3125V48.3125ZM14.5625 60.375C14.5625 60.6667 14.4583 60.9167 14.25 61.125C14.0417 61.3333 13.8125 61.4375 13.5625 61.4375C13.2708 61.4375 13.0312 61.3333 12.8438 61.125C12.6562 60.9167 12.5625 60.6667 12.5625 60.375V47.625C12.5625 46.6667 12.7396 45.7708 13.0938 44.9375C13.4479 44.1042 13.9375 43.375 14.5625 42.75C15.1875 42.125 15.9271 41.6354 16.7812 41.2812C17.6354 40.9271 18.5208 40.75 19.4375 40.75C20.3958 40.75 21.2917 40.9271 22.125 41.2812C22.9583 41.6354 23.6875 42.125 24.3125 42.75C24.9375 43.375 25.4375 44.1042 25.8125 44.9375C26.1875 45.7708 26.375 46.6667 26.375 47.625V60.375C26.375 60.6667 26.2708 60.9167 26.0625 61.125C25.8542 61.3333 25.625 61.4375 25.375 61.4375C25.0833 61.4375 24.8438 61.3333 24.6562 61.125C24.4688 60.9167 24.375 60.6667 24.375 60.375V47.625C24.375 46.9583 24.2396 46.3229 23.9688 45.7188C23.6979 45.1146 23.3542 44.6042 22.9375 44.1875C22.4792 43.7292 21.9479 43.375 21.3438 43.125C20.7396 42.875 20.1042 42.75 19.4375 42.75C18.7708 42.75 18.1354 42.875 17.5312 43.125C16.9271 43.375 16.4167 43.7292 16 44.1875C15.5417 44.6042 15.1875 45.1146 14.9375 45.7188C14.6875 46.3229 14.5625 46.9583 14.5625 47.625V60.375ZM32.8125 52.4375H42V45.4375H32.8125V52.4375ZM43 54.4375H31.8125C31.5208 54.4375 31.2812 54.3333 31.0938 54.125C30.9062 53.9167 30.8125 53.6875 30.8125 53.4375V44.4375C30.8125 44.1458 30.9062 43.9062 31.0938 43.7188C31.2812 43.5312 31.5208 43.4375 31.8125 43.4375H43C43.25 43.4375 43.4792 43.5312 43.6875 43.7188C43.8958 43.9062 44 44.1458 44 44.4375V53.4375C44 53.6875 43.8958 53.9167 43.6875 54.125C43.4792 54.3333 43.25 54.4375 43 54.4375ZM21.125 55C21.4167 55 21.6562 54.9062 21.8438 54.7188C22.0312 54.5312 22.125 54.3125 22.125 54.0625C22.125 53.7708 22.0312 53.5208 21.8438 53.3125C21.6562 53.1042 21.4167 53 21.125 53C20.8333 53 20.5938 53.1042 20.4062 53.3125C20.2188 53.5208 20.125 53.7708 20.125 54.0625C20.125 54.3125 20.2188 54.5312 20.4062 54.7188C20.5938 54.9062 20.8333 55 21.125 55ZM22.3125 31V30.9375L22.9375 18.5625H19.125L16.875 31.0625C16.875 31.4375 16.9479 31.8021 17.0938 32.1562C17.2396 32.5104 17.4167 32.8125 17.625 33.0625C17.875 33.3125 18.1667 33.5104 18.5 33.6562C18.8333 33.8021 19.1875 33.875 19.5625 33.875C19.9375 33.875 20.2917 33.8021 20.625 33.6562C20.9583 33.5104 21.2292 33.3125 21.4375 33.0625C21.7292 32.8125 21.9375 32.5 22.0625 32.125C22.1875 31.75 22.25 31.375 22.25 31H22.3125ZM24.9375 18.5625L24.3125 31C24.3125 31.375 24.3854 31.75 24.5312 32.125C24.6771 32.5 24.875 32.8125 25.125 33.0625C25.3333 33.3125 25.6042 33.5104 25.9375 33.6562C26.2708 33.8021 26.625 33.875 27 33.875C27.375 33.875 27.7292 33.8021 28.0625 33.6562C28.3958 33.5104 28.6875 33.3125 28.9375 33.0625C29.1875 32.8125 29.375 32.5 29.5 32.125C29.625 31.75 29.6875 31.375 29.6875 31H29.75L29.375 24.75C29.375 24.4583 29.4688 24.2083 29.6562 24C29.8438 23.7917 30.0625 23.6875 30.3125 23.6875C30.6042 23.6875 30.8542 23.7812 31.0625 23.9688C31.2708 24.1562 31.375 24.375 31.375 24.625L31.6875 30.9375V31H31.75C31.75 31.375 31.8229 31.75 31.9688 32.125C32.1146 32.5 32.3125 32.8125 32.5625 33.0625C32.7708 33.3125 33.0417 33.5104 33.375 33.6562C33.7083 33.8021 34.0625 33.875 34.4375 33.875C34.7292 33.875 34.9688 33.9792 35.1562 34.1875C35.3438 34.3958 35.4375 34.625 35.4375 34.875C35.4375 35.1667 35.3438 35.4062 35.1562 35.5938C34.9688 35.7812 34.7292 35.875 34.4375 35.875C33.7708 35.875 33.1562 35.75 32.5938 35.5C32.0312 35.25 31.5208 34.8958 31.0625 34.4375C31.0208 34.3542 30.9688 34.2812 30.9062 34.2188C30.8438 34.1562 30.7917 34.0833 30.75 34C30.6667 34.0833 30.5938 34.1562 30.5312 34.2188C30.4688 34.2812 30.4167 34.3542 30.375 34.4375C29.9167 34.8958 29.4062 35.25 28.8438 35.5C28.2812 35.75 27.6667 35.875 27 35.875C26.3333 35.875 25.7188 35.75 25.1562 35.5C24.5938 35.25 24.0833 34.8958 23.625 34.4375C23.5833 34.3542 23.5312 34.2812 23.4688 34.2188C23.4062 34.1562 23.3542 34.0833 23.3125 34C23.2292 34.0833 23.1562 34.1562 23.0938 34.2188C23.0312 34.2812 22.9792 34.3542 22.9375 34.4375C22.4792 34.8958 21.9688 35.25 21.4062 35.5C20.8438 35.75 20.2292 35.875 19.5625 35.875C18.8958 35.875 18.2812 35.75 17.7188 35.5C17.1562 35.25 16.6458 34.8958 16.1875 34.4375C16.1458 34.3542 16.0938 34.2812 16.0312 34.2188C15.9688 34.1562 15.8958 34.0833 15.8125 34C15.7708 34.0833 15.7188 34.1562 15.6562 34.2188C15.5938 34.2812 15.5417 34.3542 15.5 34.4375C15.0417 34.8958 14.5312 35.25 13.9688 35.5C13.4062 35.75 12.7917 35.875 12.125 35.875C11.4583 35.875 10.8438 35.75 10.2812 35.5C9.71875 35.25 9.20833 34.8958 8.75 34.4375C8.70833 34.3542 8.65625 34.2812 8.59375 34.2188C8.53125 34.1562 8.45833 34.0833 8.375 34C8.33333 34.0833 8.28125 34.1562 8.21875 34.2188C8.15625 34.2812 8.10417 34.3542 8.0625 34.4375C7.60417 34.8958 7.09375 35.25 6.53125 35.5C5.96875 35.75 5.35417 35.875 4.6875 35.875C4.14583 35.875 3.625 35.7812 3.125 35.5938C2.625 35.4062 2.16667 35.1458 1.75 34.8125C1.33333 34.4792 0.979167 34.0833 0.6875 33.625C0.395833 33.1667 0.208333 32.6667 0.125 32.125C0.0833333 31.9583 0.0520833 31.7812 0.03125 31.5938C0.0104167 31.4062 0 31.2292 0 31.0625C0.0416667 30.8958 0.0833333 30.7292 0.125 30.5625C0.166667 30.3958 0.208333 30.2292 0.25 30.0625L4.375 19.9375C4.625 19.4375 4.91667 18.9792 5.25 18.5625C5.58333 18.1458 5.95833 17.7917 6.375 17.5C6.79167 17.1667 7.26042 16.9271 7.78125 16.7812C8.30208 16.6354 8.83333 16.5625 9.375 16.5625H27.625C27.9167 16.5625 28.1562 16.6562 28.3438 16.8438C28.5312 17.0312 28.625 17.2708 28.625 17.5625C28.625 17.8125 28.5312 18.0417 28.3438 18.25C28.1562 18.4583 27.9167 18.5625 27.625 18.5625H24.9375ZM17.125 18.5625H13.0625L9.4375 31.0625C9.4375 31.4792 9.51042 31.8542 9.65625 32.1875C9.80208 32.5208 9.97917 32.8125 10.1875 33.0625C10.4375 33.3125 10.7292 33.5104 11.0625 33.6562C11.3958 33.8021 11.75 33.875 12.125 33.875C12.5 33.875 12.8542 33.8021 13.1875 33.6562C13.5208 33.5104 13.7917 33.3125 14 33.0625C14.2917 32.8125 14.5 32.5 14.625 32.125C14.75 31.75 14.8125 31.375 14.8125 31H14.875C14.875 30.9583 14.875 30.9167 14.875 30.875C14.875 30.8333 14.875 30.8125 14.875 30.8125L17.125 18.5625ZM11 18.5625H9.375C9.04167 18.5625 8.70833 18.6042 8.375 18.6875C8.04167 18.7708 7.75 18.9167 7.5 19.125C7.25 19.2917 7.01042 19.5104 6.78125 19.7812C6.55208 20.0521 6.375 20.375 6.25 20.75L2.125 30.8125C2.08333 30.8958 2.05208 30.9688 2.03125 31.0312C2.01042 31.0938 2 31.1667 2 31.25C2 31.2917 2 31.3542 2 31.4375C2 31.5208 2.02083 31.6042 2.0625 31.6875C2.10417 32.0208 2.20833 32.3229 2.375 32.5938C2.54167 32.8646 2.75 33.1042 3 33.3125C3.25 33.4792 3.51042 33.6146 3.78125 33.7188C4.05208 33.8229 4.35417 33.875 4.6875 33.875C5.0625 33.875 5.41667 33.8021 5.75 33.6562C6.08333 33.5104 6.35417 33.3125 6.5625 33.0625C6.85417 32.8125 7.0625 32.5 7.1875 32.125C7.3125 31.75 7.375 31.375 7.375 31H7.4375C7.4375 30.9167 7.4375 30.8542 7.4375 30.8125C7.4375 30.7708 7.4375 30.7292 7.4375 30.6875L11 18.5625ZM30.3125 57.8125C30.0208 57.8125 29.7812 57.7083 29.5938 57.5C29.4062 57.2917 29.3125 57.0625 29.3125 56.8125C29.3125 56.5208 29.4062 56.2812 29.5938 56.0938C29.7812 55.9062 30.0208 55.8125 30.3125 55.8125H44.5C44.75 55.8125 44.9688 55.9062 45.1562 56.0938C45.3438 56.2812 45.4375 56.5208 45.4375 56.8125C45.4375 57.0625 45.3438 57.2917 45.1562 57.5C44.9688 57.7083 44.75 57.8125 44.5 57.8125H30.3125ZM62 23.375L49.125 45.125C49 45.375 48.8021 45.5312 48.5312 45.5938C48.2604 45.6562 48 45.625 47.75 45.5C47.6667 45.4583 47.5938 45.4062 47.5312 45.3438C47.4688 45.2812 47.4167 45.2083 47.375 45.125L34.5625 23.375C34.5625 23.375 34.5521 23.3646 34.5312 23.3438C34.5104 23.3229 34.5 23.3125 34.5 23.3125C34.2083 22.7292 33.9375 22.1354 33.6875 21.5312C33.4375 20.9271 33.2292 20.3125 33.0625 19.6875C32.8958 19.0208 32.7708 18.3646 32.6875 17.7188C32.6042 17.0729 32.5625 16.3958 32.5625 15.6875C32.5625 13.5208 32.9792 11.4896 33.8125 9.59375C34.6458 7.69792 35.7708 6.04167 37.1875 4.625C38.6042 3.20833 40.2604 2.08333 42.1562 1.25C44.0521 0.416668 46.1042 0 48.3125 0C50.4792 0 52.5104 0.416668 54.4062 1.25C56.3021 2.08333 57.9583 3.20833 59.375 4.625C60.7917 6.04167 61.9167 7.69792 62.75 9.59375C63.5833 11.4896 64 13.5208 64 15.6875C64 16.3958 63.9583 17.0729 63.875 17.7188C63.7917 18.3646 63.6667 19.0208 63.5 19.6875C63.3333 20.3125 63.125 20.9375 62.875 21.5625C62.625 22.1875 62.3333 22.7917 62 23.375ZM48.3125 6.1875C49.6042 6.1875 50.8333 6.4375 52 6.9375C53.1667 7.4375 54.1667 8.125 55 9C55.875 9.83333 56.5625 10.8333 57.0625 12C57.5625 13.1667 57.8125 14.3958 57.8125 15.6875C57.8125 17.0208 57.5625 18.2708 57.0625 19.4375C56.5625 20.6042 55.875 21.6042 55 22.4375C54.1667 23.3125 53.1667 24 52 24.5C50.8333 25 49.6042 25.25 48.3125 25.25C46.9792 25.25 45.7292 25 44.5625 24.5C43.3958 24 42.375 23.3125 41.5 22.4375C40.6667 21.6042 40 20.6042 39.5 19.4375C39 18.2708 38.75 17.0208 38.75 15.6875C38.75 14.3958 39 13.1667 39.5 12C40 10.8333 40.6667 9.83333 41.5 9C42.375 8.125 43.3958 7.4375 44.5625 6.9375C45.7292 6.4375 46.9792 6.1875 48.3125 6.1875ZM53.625 10.375C52.9167 9.70833 52.1146 9.17708 51.2188 8.78125C50.3229 8.38542 49.3542 8.1875 48.3125 8.1875C47.2708 8.1875 46.2917 8.38542 45.375 8.78125C44.4583 9.17708 43.6458 9.70833 42.9375 10.375C42.2708 11.0833 41.7396 11.8854 41.3438 12.7812C40.9479 13.6771 40.75 14.6458 40.75 15.6875C40.75 16.7292 40.9479 17.7083 41.3438 18.625C41.7396 19.5417 42.2708 20.3542 42.9375 21.0625C43.6458 21.7292 44.4583 22.2604 45.375 22.6562C46.2917 23.0521 47.2708 23.25 48.3125 23.25C49.3542 23.25 50.3229 23.0521 51.2188 22.6562C52.1146 22.2604 52.9167 21.7292 53.625 21.0625C54.2917 20.3542 54.8229 19.5417 55.2188 18.625C55.6146 17.7083 55.8125 16.7292 55.8125 15.6875C55.8125 14.6458 55.6146 13.6771 55.2188 12.7812C54.8229 11.8854 54.2917 11.0833 53.625 10.375ZM48.3125 42.6875L60.3125 22.375C60.5625 21.875 60.7917 21.3542 61 20.8125C61.2083 20.2708 61.3958 19.7292 61.5625 19.1875C61.6875 18.6042 61.7917 18.0312 61.875 17.4688C61.9583 16.9062 62 16.3125 62 15.6875C62 13.8125 61.6354 12.0417 60.9062 10.375C60.1771 8.70833 59.2083 7.25 58 6C56.75 4.79167 55.2917 3.82292 53.625 3.09375C51.9583 2.36458 50.1875 2 48.3125 2C46.3958 2 44.6042 2.36458 42.9375 3.09375C41.2708 3.82292 39.8125 4.79167 38.5625 6C37.3125 7.25 36.3333 8.70833 35.625 10.375C34.9167 12.0417 34.5625 13.8125 34.5625 15.6875C34.5625 16.3125 34.5938 16.9062 34.6562 17.4688C34.7188 18.0312 34.8333 18.6042 35 19.1875C35.125 19.7292 35.3021 20.2604 35.5312 20.7812C35.7604 21.3021 36 21.8125 36.25 22.3125V22.375L48.3125 42.6875ZM48.3125 11.125C48.8958 11.125 49.4688 11.25 50.0312 11.5C50.5938 11.75 51.0833 12.0833 51.5 12.5C51.9167 12.9167 52.25 13.3958 52.5 13.9375C52.75 14.4792 52.875 15.0625 52.875 15.6875C52.875 16.3542 52.75 16.9583 52.5 17.5C52.25 18.0417 51.9167 18.5208 51.5 18.9375C51.0833 19.3542 50.6042 19.6875 50.0625 19.9375C49.5208 20.1875 48.9375 20.3125 48.3125 20.3125C47.6458 20.3125 47.0417 20.1875 46.5 19.9375C45.9583 19.6875 45.4792 19.3542 45.0625 18.9375C45.0208 18.9375 45 18.9271 45 18.9062C45 18.8854 45 18.875 45 18.875C44.5833 18.4583 44.2604 17.9792 44.0312 17.4375C43.8021 16.8958 43.6875 16.3125 43.6875 15.6875C43.6875 15.0625 43.8125 14.4792 44.0625 13.9375C44.3125 13.3958 44.6458 12.9167 45.0625 12.5C45.0625 12.5 45.0625 12.4896 45.0625 12.4688C45.0625 12.4479 45.0833 12.4375 45.125 12.4375C45.5417 12.0208 46.0208 11.6979 46.5625 11.4688C47.1042 11.2396 47.6875 11.125 48.3125 11.125ZM50.125 13.875C49.875 13.6667 49.5938 13.4896 49.2812 13.3438C48.9688 13.1979 48.6458 13.125 48.3125 13.125C47.9375 13.125 47.6042 13.1875 47.3125 13.3125C47.0208 13.4375 46.75 13.625 46.5 13.875C46.5 13.875 46.4896 13.875 46.4688 13.875C46.4479 13.875 46.4375 13.875 46.4375 13.875C46.2292 14.125 46.0521 14.4062 45.9062 14.7188C45.7604 15.0312 45.6875 15.3542 45.6875 15.6875C45.6875 16.0625 45.75 16.3958 45.875 16.6875C46 16.9792 46.1875 17.25 46.4375 17.5C46.4375 17.5 46.4375 17.5104 46.4375 17.5312C46.4375 17.5521 46.4375 17.5625 46.4375 17.5625C46.6875 17.7708 46.9688 17.9479 47.2812 18.0938C47.5938 18.2396 47.9375 18.3125 48.3125 18.3125C48.6458 18.3125 48.9688 18.2396 49.2812 18.0938C49.5938 17.9479 49.875 17.7708 50.125 17.5625C50.3333 17.3125 50.5104 17.0312 50.6562 16.7188C50.8021 16.4062 50.875 16.0625 50.875 15.6875C50.875 15.3542 50.8021 15.0312 50.6562 14.7188C50.5104 14.4062 50.3333 14.125 50.125 13.875Z" fill="#9FCE00"/>
</svg>
