<svg width="68" height="64" viewBox="0 0 68 64" fill="none" xmlns="http://www.w3.org/2000/svg">
<path d="M68 40.5634C68 39.2113 67.5467 38.0845 66.64 37.1831C66.0356 36.7324 64.9778 36.1315 63.4667 35.3803L60.52 33.8028L60.2933 31.7746C61.3511 31.0235 62.1822 30.1221 62.7867 29.0704C63.3911 28.0188 63.6933 26.892 63.6933 25.6901V23.662H65.28V21.8592H63.6933V21.6338C63.6933 19.831 63.0889 18.2535 61.88 16.9014C60.6711 15.5493 59.16 14.723 57.3467 14.4225V12.8451H55.3067V14.4225C53.4933 14.723 52.02 15.5493 50.8867 16.9014C49.7533 18.2535 49.1867 19.831 49.1867 21.6338V21.8592H47.6V23.662H49.1867V25.6901C49.1867 26.892 49.4511 28.0188 49.98 29.0704C50.5089 30.1221 51.3022 31.0235 52.36 31.7746L52.1333 33.8028L47.3733 36.2817L39.6667 32.2254L39.44 28.8451C40.8 27.9437 41.8956 26.7418 42.7267 25.2394C43.5578 23.7371 43.9733 22.0845 43.9733 20.2817V18.0282H46.4667V12.169H44.4267C44.4267 9.76526 43.7089 7.62441 42.2733 5.74648C40.8378 3.86855 39.0622 2.62911 36.9467 2.02817C36.7956 1.42723 36.4178 0.938969 35.8133 0.563381C35.2089 0.187794 34.6044 0 34 0C33.3956 0 32.7911 0.187794 32.1867 0.563381C31.5822 0.938969 31.2044 1.42723 31.0533 2.02817C29.3911 2.62911 27.88 3.53052 26.52 4.7324L28.1067 6.08451C28.8622 5.33334 29.8444 4.7324 31.0533 4.28169V12.169H25.6133C25.6133 10.5164 26.0667 8.93897 26.9733 7.43662L25.16 6.53521C24.1022 8.18779 23.5733 10.0657 23.5733 12.169H21.5333V18.0282H24.0267V20.2817C24.0267 22.0845 24.4422 23.7371 25.2733 25.2394C26.1044 26.7418 27.2 27.9437 28.56 28.8451L28.3333 32.2254L20.6267 36.2817L15.8667 33.8028L15.64 31.7746C16.6978 31.0235 17.4911 30.1221 18.02 29.0704C18.5489 28.0188 18.8133 26.892 18.8133 25.6901V23.662H20.4V21.8592H18.8133V21.6338C18.8133 19.831 18.2467 18.2535 17.1133 16.9014C15.98 15.5493 14.5067 14.723 12.6933 14.4225V12.8451H10.6533V14.4225C8.84 14.723 7.32889 15.5493 6.12 16.9014C4.91111 18.2535 4.30667 19.831 4.30667 21.6338V21.8592H2.72V23.662H4.30667V25.6901C4.30667 26.892 4.60889 28.0188 5.21333 29.0704C5.81778 30.1221 6.64889 31.0235 7.70667 31.7746L7.48 33.8028L4.53333 35.3803C3.02222 36.1315 1.96444 36.7324 1.36 37.1831C0.453333 38.0845 0 39.2113 0 40.5634V52.0563H16.0933L34 64L42.6133 58.3662L41.48 56.7887L34.9067 61.0704V38.0845L38.9867 40.7887L43.0667 36.2817L46.4667 38.0845C47.9778 38.8357 49.0733 39.4742 49.7533 40C50.4333 40.5258 50.7733 41.2394 50.7733 42.1408V50.4789L43.0667 55.662L44.2 57.2394L51.9067 52.0563H68V40.5634ZM42.3867 12.169H36.9467V4.28169C38.6089 4.88263 39.9311 5.89671 40.9133 7.32394C41.8956 8.75117 42.3867 10.3662 42.3867 12.169ZM33.0933 2.92958C33.0933 2.62911 33.1689 2.3662 33.32 2.14085C33.4711 1.91549 33.6978 1.80282 34 1.80282C34.3022 1.80282 34.5289 1.91549 34.68 2.14085C34.8311 2.3662 34.9067 2.62911 34.9067 2.92958V12.169H33.0933V2.92958ZM23.5733 13.9718H44.4267V16H23.5733V13.9718ZM25.84 20.2817V18.0282H42.16V20.2817C42.16 22.5352 41.3667 24.4507 39.78 26.0282C38.1933 27.6056 36.2667 28.3944 34 28.3944C31.7333 28.3944 29.8067 27.6056 28.22 26.0282C26.6333 24.4507 25.84 22.5352 25.84 20.2817ZM34 30.4225C35.2089 30.4225 36.3422 30.1972 37.4 29.7465L37.6267 32.4507L34 34.9296L30.3733 32.4507L30.6 29.7465C31.6578 30.1972 32.7911 30.4225 34 30.4225ZM32.1867 36.0563L29.4667 38.3099L26.7467 35.3803L29.24 34.0282L32.1867 36.0563ZM6.34667 21.6338C6.34667 20.4319 6.76222 19.3427 7.59333 18.3662C8.42445 17.3897 9.44444 16.7512 10.6533 16.4507V18.9296H12.6933V16.4507C13.9022 16.7512 14.9222 17.3897 15.7533 18.3662C16.5844 19.3427 17 20.4319 17 21.6338V21.8592H6.34667V21.6338ZM6.34667 25.6901V23.662H17V25.6901C17 27.1925 16.4711 28.4319 15.4133 29.4085C14.3556 30.385 13.1089 30.8732 11.6733 30.8732C10.2378 30.8732 8.99111 30.385 7.93333 29.4085C6.87556 28.4319 6.34667 27.1925 6.34667 25.6901ZM11.56 32.9014C12.3156 32.9014 13.0711 32.8263 13.8267 32.6761V34.0282L11.56 36.507L9.29333 34.0282L9.52 32.6761C10.2756 32.8263 10.9556 32.9014 11.56 32.9014ZM5.44 36.9577C5.74222 36.8075 6.04444 36.6573 6.34667 36.507L8.16 35.6056L10.6533 38.3099V41.2394H2.04V40.5634C2.04 39.8122 2.30444 39.2113 2.83333 38.7606C3.36222 38.3099 4.23111 37.7089 5.44 36.9577ZM15.4133 43.0423V45.0704H12.6933V43.0423H15.4133ZM10.6533 45.0704H2.04V43.0423H10.6533V45.0704ZM2.04 50.0282V47.0986H10.6533V50.0282H2.04ZM12.6933 47.0986H15.4133V50.0282H12.6933V47.0986ZM15.4133 41.2394H12.6933V38.3099L15.1867 35.6056L18.36 37.4085C16.6978 38.4601 15.7156 39.7371 15.4133 41.2394ZM17.2267 42.1408C17.2267 41.2394 17.5667 40.5258 18.2467 40C18.9267 39.4742 20.0222 38.8357 21.5333 38.0845L24.9333 36.2817L29.0133 40.7887L33.0933 38.0845V61.0704L17.2267 50.4789V42.1408ZM38.5333 38.3099L35.8133 36.0563L38.76 34.0282L41.2533 35.3803L38.5333 38.3099ZM51 21.6338C51 20.4319 51.4156 19.3427 52.2467 18.3662C53.0778 17.3897 54.0978 16.7512 55.3067 16.4507V18.9296H57.3467V16.4507C58.5556 16.7512 59.5756 17.3897 60.4067 18.3662C61.2378 19.3427 61.6533 20.4319 61.6533 21.6338V21.8592H51V21.6338ZM51 25.6901V23.662H61.6533V25.6901C61.6533 27.1925 61.1244 28.4319 60.0667 29.4085C59.0089 30.385 57.7622 30.8732 56.3267 30.8732C54.8911 30.8732 53.6444 30.385 52.5867 29.4085C51.5289 28.4319 51 27.1925 51 25.6901ZM56.44 32.9014C57.0444 32.9014 57.7244 32.8263 58.48 32.6761L58.7067 34.4789C58.7067 34.7793 58.48 35.1174 58.0267 35.493C57.5733 35.8685 57.0444 36.0563 56.44 36.0563C55.8356 36.0563 55.3067 35.8685 54.8533 35.493C54.4 35.1174 54.1733 34.7793 54.1733 34.4789V32.6761C54.9289 32.8263 55.6844 32.9014 56.44 32.9014ZM65.96 50.0282H52.5867V42.1408C52.5867 40.1878 51.6044 38.6103 49.64 37.4085L52.36 35.831C52.8133 36.4319 53.38 36.9202 54.06 37.2958C54.74 37.6714 55.4956 37.8592 56.3267 37.8592C57.1578 37.8592 57.9511 37.6714 58.7067 37.2958C59.4622 36.9202 59.9911 36.4319 60.2933 35.831L62.56 36.9577C63.7689 37.7089 64.6378 38.3099 65.1667 38.7606C65.6956 39.2113 65.96 39.8122 65.96 40.5634V50.0282ZM46.6933 46.1972H48.7333V48H46.6933V46.1972ZM46.6933 42.1408H48.7333V44.169H46.6933V42.1408Z" fill="#9FCE00"/>
</svg>
