<svg width="64" height="64" viewBox="0 0 64 64" fill="none" xmlns="http://www.w3.org/2000/svg">
<path d="M52.5208 8.32C51.0948 8.03555 49.7401 8.24889 48.4568 8.96C47.1734 9.67111 46.3178 10.7733 45.89 12.2667C45.4622 13.76 45.6404 15.1467 46.4247 16.4267C47.209 17.7067 48.3142 18.56 49.7401 18.9867C50.1679 19.1289 50.5957 19.2 51.0235 19.2C52.0217 19.2 52.9486 18.9156 53.8042 18.3467C55.0876 17.6356 55.9432 16.5333 56.371 15.04C56.7988 13.5467 56.6205 12.16 55.8362 10.88C55.0519 9.6 53.9468 8.74667 52.5208 8.32ZM52.9486 16.64C52.093 17.2089 51.1661 17.3511 50.1679 17.0667C49.1698 16.7822 48.4568 16.2133 48.029 15.36C47.6012 14.5067 47.4942 13.6178 47.7081 12.6933C47.922 11.7689 48.4568 11.0933 49.3124 10.6667C49.8827 10.24 50.4531 10.0267 51.0235 10.0267L52.093 10.24C52.9486 10.5244 53.626 11.0933 54.1251 11.9467C54.6241 12.8 54.7667 13.6889 54.5528 14.6133C54.339 15.5378 53.8042 16.2133 52.9486 16.64ZM63.4296 16.4267L61.5045 14.9333C61.6471 13.9378 61.6471 12.9422 61.5045 11.9467L63.2157 10.4533C63.5009 10.1689 63.7148 9.77777 63.8574 9.28C64 8.78222 63.9287 8.39111 63.6435 8.10667L62.1462 5.33333C61.861 4.90667 61.5045 4.62222 61.0767 4.48C60.6489 4.33778 60.2211 4.33778 59.7933 4.48L57.4405 5.33333C56.7275 4.62222 55.8719 4.12444 54.8737 3.84L54.4459 1.70667C54.3033 1.13778 54.0538 0.711109 53.6973 0.426666C53.3408 0.14222 52.9486 0 52.5208 0H49.5262C48.9559 0 48.4924 0.14222 48.1359 0.426666C47.7794 0.711109 47.5299 1.13778 47.3873 1.70667L46.9595 3.84C46.1039 4.26667 45.2483 4.83556 44.3927 5.54667L42.4676 4.69333C41.8972 4.55111 41.3981 4.58667 40.9703 4.8C40.5425 5.01333 40.186 5.33333 39.9008 5.76L38.4036 8.32C38.261 8.74667 38.2253 9.17333 38.2966 9.6C38.3679 10.0267 38.5462 10.4533 38.8314 10.88L40.5425 12.3733C40.3999 13.3689 40.4712 14.3644 40.7564 15.36L39.0453 16.8533C38.6175 17.1378 38.3679 17.5289 38.2966 18.0267C38.2253 18.5244 38.3323 18.9867 38.6175 19.4133L40.1147 21.9733C40.3999 22.4 40.7564 22.6844 41.1842 22.8267C41.612 22.9689 42.0398 22.9689 42.4676 22.8267L44.6066 21.9733C45.4622 22.6844 46.3891 23.1822 47.3873 23.4667L47.8151 25.6C47.8151 26.1689 48.029 26.5956 48.4568 26.88C48.8846 27.1644 49.3124 27.3067 49.7401 27.3067H52.7347C53.1625 27.3067 53.5903 27.1644 54.0181 26.88C54.4459 26.5956 54.6598 26.1689 54.6598 25.6L55.0876 23.4667C56.0858 23.04 57.0127 22.4711 57.8683 21.76L59.7933 22.6133C60.2211 22.7556 60.6846 22.72 61.1837 22.5067C61.6828 22.2933 62.0036 22.0444 62.1462 21.76L63.8574 18.9867C64 18.56 64.0356 18.1333 63.9643 17.7067C63.893 17.28 63.7148 16.8533 63.4296 16.4267ZM62.1462 18.1333L60.6489 20.6933H60.435L57.8683 19.84C57.5831 19.6978 57.2979 19.7689 57.0127 20.0533C56.1571 20.9067 55.1589 21.4756 54.0181 21.76C53.7329 21.9022 53.519 22.1867 53.3764 22.6133L52.9486 25.3867H52.7347H49.7401H49.5262L49.0985 22.6133C49.0985 22.3289 48.8846 22.1156 48.4568 21.9733C47.316 21.5467 46.3178 20.9778 45.4622 20.2667C45.177 20.1244 44.8918 20.0533 44.6066 20.0533L41.8259 21.12L40.3286 18.3467C40.186 18.3467 40.186 18.2756 40.3286 18.1333L42.2537 16.4267C42.5389 16.1422 42.6815 15.8578 42.6815 15.5733C42.3963 14.4356 42.325 13.2978 42.4676 12.16C42.6102 11.7333 42.5389 11.4489 42.2537 11.3067L40.1147 9.38667C40.1147 9.38667 40.1147 9.31556 40.1147 9.17333L41.612 6.61333H41.8259L44.3927 7.46667C44.6779 7.60889 44.9631 7.53778 45.2483 7.25333C46.1039 6.4 47.1021 5.83111 48.2429 5.54667C48.5281 5.40444 48.742 5.12 48.8846 4.69333L49.3124 1.92H49.5262H52.5208L53.1625 4.69333C53.1625 4.97778 53.3764 5.19111 53.8042 5.33333C54.945 5.76 55.9432 6.32889 56.7988 7.04C57.084 7.32444 57.3692 7.39555 57.6544 7.25333L60.435 6.18666V6.4L61.9323 8.96C62.0749 8.96 62.0749 9.03111 61.9323 9.17333L60.0072 10.88C59.722 11.1644 59.5794 11.4489 59.5794 11.7333C59.8646 12.8711 59.8646 14.0089 59.5794 15.1467C59.5794 15.5733 59.722 15.8578 60.0072 16L62.1462 17.92C62.1462 17.92 62.1462 17.9911 62.1462 18.1333ZM13.5914 33.7067C13.5914 32.8533 13.2706 32.1422 12.6289 31.5733C11.9872 31.0044 11.2385 30.72 10.383 30.72H9.95516V26.0267C9.95516 25.4578 9.77691 25.1378 9.42041 25.0667C9.06392 24.9956 8.70742 25.0667 8.35093 25.28C7.99443 25.4933 7.88748 25.8133 8.03008 26.24V30.72H5.24941V14.5067C5.24941 14.3644 5.24941 14.2222 5.24941 14.08L2.89653 10.24V5.33333H10.383V10.24L8.24398 14.08C8.10138 14.2222 8.03008 14.3644 8.03008 14.5067V20.6933C7.88748 21.12 7.99443 21.44 8.35093 21.6533C8.70742 21.8667 9.06392 21.9022 9.42041 21.76C9.77691 21.6178 9.95516 21.3333 9.95516 20.9067V14.72L12.0941 10.88C12.2367 10.7378 12.308 10.5956 12.308 10.4533V0.853333C12.308 0.711109 12.2011 0.533333 11.9872 0.32C11.7733 0.106667 11.5237 0 11.2385 0H2.04094C1.75574 0 1.54185 0.106667 1.39925 0.32C1.25665 0.533333 1.18535 0.782219 1.18535 1.06667V10.4533C1.18535 10.5956 1.18535 10.8089 1.18535 11.0933L3.53823 14.72V30.72H2.89653C1.75574 30.72 0.935803 31.1822 0.436708 32.1067C-0.0623869 33.0311 -0.133686 34.0267 0.22281 35.0933C0.579306 36.16 1.32795 36.7644 2.46874 36.9067V55.68C2.46874 56.96 2.89653 57.9911 3.75212 58.7733C4.60771 59.5556 5.6059 59.9467 6.74669 59.9467C7.88748 59.9467 8.88567 59.5556 9.74126 58.7733C10.5969 57.9911 11.0246 56.96 11.0246 55.68V36.9067C11.7376 36.7644 12.3437 36.4089 12.8428 35.84C13.3419 35.2711 13.5914 34.56 13.5914 33.7067ZM2.89653 3.41333V1.92H10.383V3.41333H2.89653ZM6.74669 58.0267C6.0337 58.0267 5.42766 57.7778 4.92856 57.28C4.42947 56.7822 4.17992 56.2489 4.17992 55.68L4.39382 36.9067H9.09957V55.68C9.09957 56.2489 8.85002 56.7822 8.35093 57.28C7.85183 57.7778 7.31709 58.0267 6.74669 58.0267ZM10.383 34.9867H2.89653C2.46874 34.9867 2.14789 34.7733 1.93399 34.3467C1.72009 33.92 1.72009 33.4933 1.93399 33.0667C2.14789 32.64 2.46874 32.4267 2.89653 32.4267H10.383C10.9533 32.4267 11.3098 32.64 11.4524 33.0667C11.595 33.4933 11.595 33.92 11.4524 34.3467C11.3098 34.7733 10.9533 34.9867 10.383 34.9867ZM60.0072 53.12V49.0667C60.0072 45.6533 59.2942 42.4178 57.8683 39.36C56.4423 36.3022 54.3746 33.7067 51.6652 31.5733C51.38 31.2889 51.0235 31.1467 50.5957 31.1467C50.1679 31.1467 49.8114 31.2889 49.5262 31.5733C47.5299 30.1511 45.3196 29.0844 42.8954 28.3733C43.038 27.6622 42.8954 27.2356 42.4676 27.0933C40.899 26.24 39.2948 25.8133 37.6549 25.8133C36.015 25.8133 34.4108 26.24 32.8422 27.0933C32.4144 27.2356 32.2718 27.6622 32.4144 28.3733C31.2736 28.6578 30.2041 29.0844 29.206 29.6533V18.56C33.0561 17.5644 35.0525 15.1467 35.1951 11.3067C35.1951 9.31556 34.6247 7.25333 33.4839 5.12C32.3431 2.98666 30.9884 1.35111 29.4199 0.213333C28.5643 -0.0711136 28.0652 0.213333 27.9226 1.06667V8.74667C27.78 9.17333 27.4948 9.38667 27.067 9.38667H23.2168C23.0742 9.38667 22.9316 9.31556 22.789 9.17333C22.6464 9.03111 22.5751 8.88889 22.5751 8.74667V0.853333C22.4325 0.14222 21.9334 -0.0711136 21.0778 0.213333C19.3667 1.20889 17.9763 2.77333 16.9068 4.90667C15.8373 7.04 15.3026 9.17333 15.3026 11.3067C15.3026 15.1467 17.2277 17.5644 21.0778 18.56V34.1333C19.0815 36.1244 17.5842 38.4 16.586 40.96C15.5878 43.52 15.0887 46.2222 15.0887 49.0667V53.12C13.9479 53.5467 13.2349 54.2933 12.9497 55.36C12.6645 56.4267 12.8071 57.4578 13.3775 58.4533C13.9479 59.4489 14.8748 59.9467 16.1582 59.9467C18.725 59.9467 21.2917 60.6222 23.8585 61.9733C26.4253 63.3244 29.0634 64 31.7727 64H43.3232C46.1752 64 48.8846 63.3244 51.4513 61.9733C54.0181 60.6222 56.5849 59.9467 59.1516 59.9467C60.435 59.9467 61.3619 59.4489 61.9323 58.4533C62.5027 57.4578 62.6453 56.4267 62.3601 55.36C62.0749 54.2933 61.2906 53.5467 60.0072 53.12ZM48.8846 33.28V44.16C48.8846 44.4444 48.9559 44.6933 49.0985 44.9067C49.2411 45.12 49.4549 45.2267 49.7401 45.2267C50.0253 45.2267 50.2392 45.12 50.3818 44.9067C50.5244 44.6933 50.5957 44.4444 50.5957 44.16V33.28C53.0199 35.2711 54.9093 37.6178 56.264 40.32C57.6187 43.0222 58.2961 45.9378 58.2961 49.0667V52.9067H50.8096L50.5957 49.28C50.5957 48.9956 50.5244 48.7467 50.3818 48.5333C50.2392 48.32 50.0253 48.2133 49.7401 48.2133C49.4549 48.2133 49.2411 48.32 49.0985 48.5333C48.9559 48.7467 48.8846 48.9956 48.8846 49.28V52.9067H42.8954V30.5067C45.0344 31.0756 47.0308 32 48.8846 33.28ZM40.9703 28.3733V52.9067H34.1256V28.3733C36.4072 27.3778 38.6888 27.3778 40.9703 28.3733ZM32.4144 52.9067H26.4253V33.28C28.2791 32 30.2754 31.0756 32.4144 30.5067V52.9067ZM17.2277 11.3067C17.2277 9.88444 17.5485 8.39111 18.1902 6.82666C18.8319 5.26222 19.6519 3.98222 20.65 2.98666V8.74667C20.65 9.45778 20.8996 10.0622 21.3987 10.56C21.8978 11.0578 22.5038 11.3067 23.2168 11.3067H27.067C27.78 11.3067 28.386 11.0578 28.8851 10.56C29.3842 10.0622 29.6338 9.45778 29.6338 8.74667V2.98666C30.7745 4.12444 31.6658 5.44 32.3075 6.93333C32.9492 8.42667 33.27 9.88444 33.27 11.3067C33.27 14.4356 31.5588 16.2844 28.1365 16.8533C27.5661 16.9956 27.2809 17.28 27.2809 17.7067V30.5067L25.5697 31.5733C25.2845 31.2889 24.9637 31.1822 24.6072 31.2533C24.2507 31.3244 23.9298 31.4311 23.6446 31.5733L22.789 32.2133L23.0029 17.7067C23.0029 17.28 22.7177 16.9956 22.1473 16.8533C18.8676 16.1422 17.2277 14.2933 17.2277 11.3067ZM24.5002 33.28V52.9067H17.0138V49.0667C17.0138 45.9378 17.6911 43.0222 19.0458 40.32C20.4005 37.6178 22.2186 35.2711 24.5002 33.28ZM60.2211 57.6C59.9359 57.8844 59.5794 58.0267 59.1516 58.0267C56.2997 58.0267 53.3764 58.8089 50.3818 60.3733C48.2429 61.5111 45.89 62.08 43.3232 62.08H31.7727C29.3486 62.08 26.9957 61.5111 24.7141 60.3733C21.5769 58.6667 18.725 57.8844 16.1582 58.0267C15.4452 58.0267 14.9818 57.7778 14.7679 57.28C14.554 56.7822 14.5896 56.2489 14.8748 55.68C15.16 55.1111 15.5878 54.8267 16.1582 54.8267H58.9377C59.6507 54.8267 60.1855 55.1467 60.542 55.7867C60.8985 56.4267 60.7915 57.0311 60.2211 57.6Z" fill="#9FCE00"/>
</svg>
