<svg width="20" height="17" viewBox="0 0 20 17" fill="none" xmlns="http://www.w3.org/2000/svg">
<path d="M18.178 7.2727H3.80525L8.20432 1.98897C8.41002 1.74149 8.50898 1.42243 8.47944 1.10198C8.44989 0.781534 8.29426 0.485946 8.04678 0.280246C7.7993 0.0745462 7.48024 -0.0244169 7.15979 0.00512801C6.83934 0.0346729 6.54375 0.190306 6.33805 0.437789L0.278729 7.70897C0.237963 7.76681 0.201508 7.82757 0.169661 7.89075C0.169661 7.95135 0.169661 7.9877 0.0848307 8.0483C0.0299011 8.18725 0.00114051 8.33516 0 8.48457C0.00114051 8.63398 0.0299011 8.78189 0.0848307 8.92084C0.0848307 8.98143 0.0848303 9.01779 0.169661 9.07838C0.201508 9.14157 0.237963 9.20233 0.278729 9.26016L6.33805 16.5313C6.45199 16.6681 6.59468 16.7782 6.75596 16.8536C6.91724 16.929 7.09315 16.9679 7.27119 16.9676C7.55434 16.9682 7.82875 16.8696 8.04678 16.6889C8.16949 16.5872 8.27093 16.4622 8.34528 16.3212C8.41963 16.1802 8.46543 16.0259 8.48007 15.8672C8.4947 15.7085 8.47788 15.5484 8.43056 15.3962C8.38324 15.244 8.30636 15.1026 8.20432 14.9802L3.80525 9.69643H18.178C18.4994 9.69643 18.8076 9.56875 19.0349 9.34149C19.2622 9.11422 19.3898 8.80597 19.3898 8.48457C19.3898 8.16316 19.2622 7.85492 19.0349 7.62765C18.8076 7.40038 18.4994 7.2727 18.178 7.2727Z" fill="white"/>
</svg>
